<svg width="71" height="71" xmlns="http://www.w3.org/2000/svg" xmlns:xlink="http://www.w3.org/1999/xlink">
    <defs>
        <circle id="a" cx="33.5" cy="33.5" r="33.5" />
        <path d="M45.593 46.184a8.573 8.573 0 0 0-2.722-2.166L35.075 40.1a3.96 3.96 0 0 1-2.15-3.12l-.112-1.062c-.099-.947.099-1.92.653-2.688a7.762 7.762 0 0 0 1.424-3.664l.145-1.286a2.35 2.35 0 0 0 2.301-1.922l.412-2.16a2.375 2.375 0 0 0-1.477-2.663l-.448-.172.415-3.68c.528-4.646-3.066-8.723-7.69-8.723h-2.7c-4.627 0-8.22 4.077-7.694 8.723l.42 3.68-.45.172A2.366 2.366 0 0 0 16.65 24.2l.409 2.16a2.35 2.35 0 0 0 2.301 1.921l.147 1.286a7.714 7.714 0 0 0 1.422 3.664c.552.769.752 1.74.653 2.686l-.114 1.064a3.948 3.948 0 0 1-2.148 3.12l-7.796 3.918A8.605 8.605 0 0 0 8.8 46.184s4.864 8.235 18.399 8.235c13.532 0 18.394-8.235 18.394-8.235" id="c" />
    </defs>
    <g transform="translate(2 2)" fill="none" fill-rule="evenodd">
        <mask id="b" fill="#fff">
            <use xlink:href="#a" />
        </mask>
        <circle stroke="#FFF" stroke-width="1.5" cx="33.5" cy="33.5" r="34.25" />
        <g mask="url(#b)">
            <path fill="#375DD5" d="M-25.311-4.467h104v107h-104z" />
            <path fill="#687089" d="M-25.311-4.467h104v107h-104z" />
        </g>
        <g mask="url(#b)">
            <g transform="translate(6 5)">
                <mask id="d" fill="#fff">
                    <use xlink:href="#c" />
                </mask>
                <use fill="#fff" xlink:href="#c" />
            </g>
        </g>
    </g>
</svg>