<svg width="375" height="216" xmlns="http://www.w3.org/2000/svg"><g fill="none" fill-rule="evenodd"><path fill="#375DD5" d="M0 0h375v216H0z"/><path fill="#687089" d="M0 0h375v216H0z"/><g transform="translate(284 170)" fill="#FFF"><rect opacity=".31" width="88" height="42" rx="5"/><text font-family="SFProText-Regular, SF Pro Text" font-size="16" letter-spacing="-.32"><tspan x="22.089" y="26">return</tspan></text></g><g transform="translate(134 170)" fill="#FFF"><rect opacity=".31" width="144.5" height="42" rx="5"/><text font-family="SFProText-Regular, SF Pro Text" font-size="16" letter-spacing="-.32"><tspan x="49.777" y="26">space</tspan></text></g><g transform="translate(96.5 170)"><rect fill="#FFF" opacity=".31" width="32" height="42" rx="5"/><path d="M21 19.061l-10-.028v3.463A4.501 4.501 0 0 0 15.501 27h.998A4.501 4.501 0 0 0 21 22.499V19.06z" stroke="#FFF"/><path d="M13.5 14.997v7.006a2.5 2.5 0 0 0 5 0v-7.006a2.5 2.5 0 0 0-5 0zm-1 0a3.5 3.5 0 0 1 7 0v7.006a3.5 3.5 0 0 1-7 0v-7.006zM15.5 27v3.938h1V27z" fill="#FFF" fill-rule="nonzero"/><path fill="#FFF" fill-rule="nonzero" d="M12.5 31.5h7v-1h-7z"/></g><g transform="translate(49 170)" fill="#FFF"><rect opacity=".31" width="42" height="42" rx="5"/><path d="M14.094 28.768c.067-.076.211-.22.431-.412a9.178 9.178 0 0 1 1.33-.958A9.874 9.874 0 0 1 20.91 26c1.932-.013 3.666.535 5.177 1.458.522.32.98.661 1.367 1.002a7.173 7.173 0 0 1 .454.435l.747-.664a6.552 6.552 0 0 0-.54-.522c-.43-.378-.933-.754-1.507-1.104-1.66-1.015-3.573-1.62-5.705-1.605-2.108.015-3.968.59-5.56 1.54-.566.337-1.058.699-1.475 1.062-.254.221-.43.397-.524.505l.75.661zM13.344 15.456c.095.107.27.283.524.505.417.363.909.725 1.474 1.062a10.868 10.868 0 0 0 5.56 1.54c2.133.014 4.045-.59 5.706-1.605.574-.35 1.077-.727 1.506-1.104.262-.23.443-.411.541-.522l-.747-.664c-.016.017-.051.055-.107.11a7.173 7.173 0 0 1-.347.325c-.387.34-.845.682-1.367 1.002-1.511.923-3.245 1.47-5.177 1.458a9.874 9.874 0 0 1-5.056-1.399 9.178 9.178 0 0 1-1.329-.957 5.077 5.077 0 0 1-.431-.413l-.75.662z" fill-rule="nonzero"/><path d="M20.5 12.5h1V31h-1z"/><path d="M11 21h20v1H11z"/><path d="M21.262 30.5c2.093 0 4.238-4.033 4.238-9s-2.145-9-4.238-9c-2.555 0-4.762 3.885-4.762 9s2.207 9 4.762 9zm0 1c-3.3 0-5.762-4.477-5.762-10s2.462-10 5.762-10c2.776 0 5.238 4.477 5.238 10s-2.462 10-5.238 10z" fill-rule="nonzero"/><path d="M21 30.5a9 9 0 1 0 0-18 9 9 0 0 0 0 18zm0 1c-5.523 0-10-4.477-10-10s4.477-10 10-10 10 4.477 10 10-4.477 10-10 10z" fill-rule="nonzero"/></g><g transform="translate(3 170)" fill="#FFF"><rect opacity=".31" width="40" height="42" rx="5"/><text font-family="SFProText-Regular, SF Pro Text" font-size="16" letter-spacing="-.32"><tspan x="6.402" y="26">123</tspan></text></g><g transform="translate(330 118)" fill="#FFF"><rect opacity=".31" width="42" height="42" rx="5"/><path d="M18.414 14l-7 7 7 7h11.588c.542 0 .998-.471.998-1.067V15.067c0-.594-.456-1.067-.998-1.067H18.414zM32 15.067v11.866C32 28.075 31.103 29 30.002 29H18l-8-8 8-8h12.002c1.103 0 1.998.93 1.998 2.067zm-8.5 5.226l-3.182-3.182-.707.707L22.793 21l-3.182 3.182.707.707 3.182-3.182 3.182 3.182.707-.707L24.207 21l3.182-3.182-.707-.707-3.182 3.182z" fill-rule="nonzero"/></g><g transform="translate(3 118)"><rect fill="#FFF" opacity=".31" width="42" height="42" rx="5"/><path d="M24.645 22.359l4.411.007c.551 0 .679-.315.288-.706l-8.366-8.367a1 1 0 0 0-1.417.002l-8.332 8.333c-.396.395-.264.71.286.71l4.13.007v4.18a2 2 0 0 0 1.997 2h5.005a2 2 0 0 0 1.998-2v-4.166h0z" stroke="#FFF"/></g><g fill="#FFF"><g transform="translate(284 118)"><rect opacity=".31" width="32" height="42" rx="5"/><text font-family="SFProText-Regular, SF Pro Text" font-size="23"><tspan x="6.494" y="28">m</tspan></text></g><g transform="translate(246.5 118)"><rect opacity=".31" width="32" height="42" rx="5"/><text font-family="SFProText-Regular, SF Pro Text" font-size="23"><tspan x="9.29" y="28">n</tspan></text></g><g transform="translate(209 118)"><rect opacity=".31" width="32" height="42" rx="5"/><text font-family="SFProText-Regular, SF Pro Text" font-size="23"><tspan x="9.436" y="28">b</tspan></text></g><g transform="translate(171.5 118)"><rect opacity=".31" width="32" height="42" rx="5"/><text font-family="SFProText-Regular, SF Pro Text" font-size="23"><tspan x="10.267" y="28">v</tspan></text></g><g transform="translate(134 118)"><rect opacity=".31" width="32" height="42" rx="5"/><text font-family="SFProText-Regular, SF Pro Text" font-size="23"><tspan x="10.065" y="28">c</tspan></text></g><g transform="translate(96.5 118)"><rect opacity=".31" width="32" height="42" rx="5"/><text font-family="SFProText-Regular, SF Pro Text" font-size="23"><tspan x="10.469" y="28">x</tspan></text></g><g transform="translate(59 118)"><rect opacity=".31" width="32" height="42" rx="5"/><text font-family="SFProText-Regular, SF Pro Text" font-size="23"><tspan x="10.301" y="28">z</tspan></text></g></g><g fill="#FFF"><g transform="translate(321.5 64)"><rect opacity=".31" width="32" height="42" rx="5"/><text font-family="SFProText-Regular, SF Pro Text" font-size="23"><tspan x="13.103" y="28">l</tspan></text></g><g transform="translate(284 64)"><rect opacity=".31" width="32" height="42" rx="5"/><text font-family="SFProText-Regular, SF Pro Text" font-size="23"><tspan x="10.256" y="28">k</tspan></text></g><g transform="translate(246.5 64)"><rect opacity=".31" width="32" height="42" rx="5"/><text font-family="SFProText-Regular, SF Pro Text" font-size="23"><tspan x="13.17" y="28">j</tspan></text></g><g transform="translate(209 64)"><rect opacity=".31" width="32" height="42" rx="5"/><text font-family="SFProText-Regular, SF Pro Text" font-size="23"><tspan x="9.172" y="28">h</tspan></text></g><g transform="translate(171.5 64)"><rect opacity=".31" width="32" height="42" rx="5"/><text font-family="SFProText-Regular, SF Pro Text" font-size="23"><tspan x="9.492" y="28">g</tspan></text></g><g transform="translate(134 64)"><rect opacity=".31" width="32" height="42" rx="5"/><text font-family="SFProText-Regular, SF Pro Text" font-size="23"><tspan x="12.339" y="28">f</tspan></text></g><g transform="translate(96.5 64)"><rect opacity=".31" width="32" height="42" rx="5"/><text font-family="SFProText-Regular, SF Pro Text" font-size="23"><tspan x="9.436" y="28">d</tspan></text></g><g transform="translate(59.5 64)"><rect opacity=".31" width="32" height="42" rx="5"/><text font-family="SFProText-Regular, SF Pro Text" font-size="23"><tspan x="10.48" y="28">s</tspan></text></g><g transform="translate(22 64)"><rect opacity=".31" width="32" height="42" rx="5"/><text font-family="SFProText-Regular, SF Pro Text" font-size="23"><tspan x="10.155" y="28">a</tspan></text></g></g><g fill="#FFF"><g transform="translate(340 10)"><rect opacity=".31" width="32" height="42" rx="5"/><text font-family="SFProText-Regular, SF Pro Text" font-size="23"><tspan x="9.492" y="28">p</tspan></text></g><g transform="translate(302.5 10)"><rect opacity=".31" width="32" height="42" rx="5"/><text font-family="SFProText-Regular, SF Pro Text" font-size="23"><tspan x="9.206" y="28">o</tspan></text></g><g transform="translate(265 10)"><rect opacity=".31" width="32" height="42" rx="5"/><text font-family="SFProText-Regular, SF Pro Text" font-size="23"><tspan x="13.17" y="28">i</tspan></text></g><g transform="translate(227.5 10)"><rect opacity=".31" width="32" height="42" rx="5"/><text font-family="SFProText-Regular, SF Pro Text" font-size="23"><tspan x="9.284" y="28">u</tspan></text></g><g transform="translate(190 10)"><rect opacity=".31" width="32" height="42" rx="5"/><text font-family="SFProText-Regular, SF Pro Text" font-size="23"><tspan x="10.256" y="28">y</tspan></text></g><g transform="translate(152.5 10)"><rect opacity=".31" width="32" height="42" rx="5"/><text font-family="SFProText-Regular, SF Pro Text" font-size="23"><tspan x="12.322" y="28">t</tspan></text></g><g transform="translate(115 10)"><rect opacity=".31" width="32" height="42" rx="5"/><text font-family="SFProText-Regular, SF Pro Text" font-size="23"><tspan x="12.12" y="28">r</tspan></text></g><g transform="translate(77.5 10)"><rect opacity=".31" width="32" height="42" rx="5"/><text font-family="SFProText-Regular, SF Pro Text" font-size="23"><tspan x="9.43" y="28">e</tspan></text></g><g transform="translate(40.5 10)"><rect opacity=".31" width="32" height="42" rx="5"/><text font-family="SFProText-Regular, SF Pro Text" font-size="23"><tspan x="7.094" y="28">w</tspan></text></g><g transform="translate(3 10)"><rect opacity=".31" width="32" height="42" rx="5"/><text font-family="SFProText-Regular, SF Pro Text" font-size="23"><tspan x="9.492" y="28">q</tspan></text></g></g></g></svg>