<?xml version="1.0" encoding="utf-8"?>
<!-- Generator: Adobe Illustrator 19.0.1, SVG Export Plug-In . SVG Version: 6.00 Build 0)  -->
<svg version="1.1" id="Layer_1" xmlns="http://www.w3.org/2000/svg" xmlns:xlink="http://www.w3.org/1999/xlink" x="0px" y="0px"
	 viewBox="-410 614 180 180" style="enable-background:new -410 614 180 180;" xml:space="preserve">
<g fill="#35a7c1"><path d="M-298.1,704c0-21.2-8.3-40.5-21.9-54.7c-13.5,14.3-21.9,33.5-21.9,54.7c0,9.7,1.8,19,5,27.6c-4.6,6.8-8.1,16.2-9.6,27.1
	c4.8-5.7,10.7-9.8,17.2-11.9c2.7,4.2,5.8,8.2,9.3,11.9c3.5-3.6,6.6-7.6,9.3-11.9c6.5,2,12.4,6.2,17.2,11.9
	c-1.5-10.9-4.9-20.4-9.6-27.1C-299.9,723-298.1,713.7-298.1,704 M-320,704.1c-5.5,0-9.9-4.4-9.9-9.9s4.4-9.9,9.9-9.9
	s9.9,4.4,9.9,9.9S-314.5,704.1-320,704.1"/>
<path d="M-320,614c-49.7,0-90,40.3-90,90s40.3,90,90,90s90-40.3,90-90S-270.3,614-320,614 M-320,779c-41.4,0-75-33.6-75-75
	s33.6-75,75-75s75,33.6,75,75S-278.6,779-320,779"/>
</g></svg>
