<?xml version="1.0" encoding="iso-8859-1"?>
<!DOCTYPE svg PUBLIC "-//W3C//DTD SVG 1.1//EN" "http://www.w3.org/Graphics/SVG/1.1/DTD/svg11.dtd">
<svg 
 version="1.1" xmlns="http://www.w3.org/2000/svg" xmlns:xlink="http://www.w3.org/1999/xlink" x="0px" y="0px" width="512px"
	 height="512px" viewBox="0 0 512 512" style="enable-background:new 0 0 512 512;" xml:space="preserve"
><g id="afcae5a789ccd549f9c6e2a2f80a95b7"><g></g><path style="display: inline;" d="M324.301,187.699l-0.05,0.05c14.48,15.499,14.2,39.783-0.913,54.892
		c-15.433,15.438-40.461,15.443-55.898,0.006c-0.061-0.061-0.182-0.182-0.182-0.182c-23.394-23.394-62.402-21.655-87.358,3.301
		l-84.937,84.938c-24.967,24.962-26.288,65.818-2.883,89.223c23.394,23.399,64.25,22.073,89.218-2.889l31.471-31.47
		c0,0,14.37,5.551,42.26,8.385c26.909,2.729,53.086-5.381,53.086-5.381l-80.525,80.524c-54.094,54.094-139.906,56.801-190.693,6.008
		c-50.793-50.787-48.086-136.599,6.008-190.688l90.703-90.708c53.351-53.351,137.534-56.68,188.559-8.022
		c0.391,0.358,0.798,0.683,1.177,1.057c0.116,0.11,0.204,0.231,0.319,0.352C323.871,187.303,324.092,187.49,324.301,187.699z
		 M188.339,324.909c0.11,0.11,0.204,0.237,0.319,0.353c0.374,0.374,0.781,0.698,1.172,1.057
		c51.024,48.652,135.208,45.323,188.564-8.027l90.703-90.703c54.088-54.094,56.801-139.906,6.008-190.693
		c-50.787-50.79-136.6-48.083-190.693,6.008l-80.524,80.525c0,0,26.172-8.11,53.081-5.381c27.888,2.833,42.259,8.385,42.259,8.385
		l31.471-31.471c24.967-24.961,65.818-26.276,89.218-2.877c23.399,23.399,22.084,64.256-2.884,89.218l-84.932,84.932
		c-24.961,24.962-63.97,26.7-87.368,3.296c0,0-0.11-0.11-0.177-0.171c-15.438-15.438-40.46-15.438-55.898,0
		c-15.113,15.113-15.394,39.398-0.913,54.892l-0.044,0.056C187.911,324.514,188.125,324.7,188.339,324.909z"></path></g></svg>